<?xml version="1.0" encoding="UTF-8"?>
<svg id="Laag_1" data-name="Laag 1" xmlns="http://www.w3.org/2000/svg" viewBox="0 0 283.46 68.03">
  <defs>
    <style>
      .cls-1 {
        fill: #1d1d1b;
      }

      .cls-2 {
        fill: #eb8a00;
      }
    </style>
  </defs>
  <g>
    <g>
      <path class="cls-1" d="M76.99,33.75c-2.63-4.67-7.61-7.62-13.78-7.62s-11.46,2.97-14.38,7.62h28.16Z"/>
      <path class="cls-1" d="M46.37,41.63c-.02.3-.02.6-.02.9,0,9.56,7.36,16.41,17.57,16.41,5.3,0,9.75-1.81,12.85-5.43l-5.43-5.43c-1.87,2.2-4.39,3.23-7.49,3.23-4,0-6.72-2-7.75-5.49l22.48-.06c.32-1.61.45-2.78.45-3.94,0-.07,0-.13,0-.19h-32.65Z"/>
    </g>
    <g>
      <path class="cls-1" d="M107.9,33.75l2.58-2.58c-3.16-3.29-7.36-5.04-12.21-5.04-6.42,0-11.83,2.97-14.83,7.62h24.46Z"/>
      <path class="cls-1" d="M98.27,49.96c-4.2,0-7.3-3.04-7.3-7.49,0-.29.01-.57.04-.84h-10.09c-.02.3-.02.6-.02.9,0,9.37,7.49,16.41,17.25,16.41,5.04,0,9.17-1.81,12.47-5.23l-6.27-6.33c-1.49,1.68-3.42,2.58-6.07,2.58Z"/>
    </g>
    <path class="cls-2" d="M188.35,11.34h9.88v46.89h-9.88V11.34Z"/>
    <path class="cls-2" d="M202.29,42.54c0-9.37,6.39-16.34,15.05-16.34,3.49,0,6.52,1.23,8.66,3.23v-2.58h9.69v31.39h-9.69v-2.58c-2.13,2-5.17,3.23-8.66,3.23-8.66,0-15.05-6.98-15.05-16.34ZM226.38,42.54c0-4.39-2.84-7.43-6.98-7.43s-7.1,3.1-7.1,7.43,2.97,7.43,7.04,7.43,7.04-3.04,7.04-7.43Z"/>
    <path class="cls-2" d="M241.51,26.84h9.88v2.52c2.2-2,5.3-3.16,8.78-3.16,6.91,0,11.95,5.49,11.95,11.95v20.09h-9.88v-17.89c0-3.29-2.26-5.49-5.36-5.49s-5.49,2.2-5.49,5.49v17.89h-9.88v-31.39Z"/>
  </g>
  <path class="cls-2" d="M169.69,12.63h-19.05v21.12h10.14v7.88h-10.14v16.6h10.14v-16.6h8.91c8.66,0,15.37-5.56,15.37-14.53s-6.72-14.47-15.37-14.47ZM168.2,33.75h-7.43v-13.24h7.43c3.81,0,6.78,2.39,6.78,6.59s-2.97,6.65-6.78,6.65Z"/>
  <g>
    <rect class="cls-1" x="113.4" y="41.63" width="9.88" height="16.6"/>
    <path class="cls-1" d="M143.27,33.75c-1.64-4.57-5.88-7.56-11.52-7.56-3.42,0-6.33,1.1-8.46,2.97V11.34h-9.88v22.41h29.87Z"/>
    <rect class="cls-1" x="134.13" y="41.63" width="9.88" height="16.6"/>
  </g>
  <g>
    <path class="cls-1" d="M21.48,33.75v-13.24h7.43c3.81,0,6.78,2.39,6.78,6.59s-2.96,6.65-6.77,6.65h15.37c.94-1.92,1.48-4.15,1.48-6.65,0-8.91-6.72-14.47-15.37-14.47H11.34v21.12h10.14Z"/>
    <rect class="cls-1" x="11.34" y="41.63" width="10.14" height="16.6"/>
  </g>
</svg>